name analog
datacolumns 19
datarows 52
range 0.2 0.2255
endheader
time	ground_force_vx	ground_force_vy	ground_force_vz	ground_force_px	ground_force_py	ground_force_pz	l_ground_force_vx	l_ground_force_vy	l_ground_force_vz	l_ground_force_px	l_ground_force_py	l_ground_force_pz	ground_torque_x	ground_torque_y	ground_torque_z	l_ground_torque_x	l_ground_torque_y	l_ground_torque_z
0.2	-0.0	-0.0	-0.0	10.789844512939451	88.77850341796875	-501.4788513183594	-1.3914130926132202	-84.09152221679688	-465.1066284179688	-0.0	-0.0	-0.0	-0.0	-0.0	-0.0	67627.5	-8577.458984375	-6067.580078125
0.2005	-0.0	-0.0	-0.0	11.87409210205078	88.13179016113281	-501.49749755859375	-0.3227821290493011	-83.48223114013672	-467.1468200683594	-0.0	-0.0	-0.0	-0.0	-0.0	-0.0	68196.2890625	-8857.716796875	-5859.12353515625
0.201	-0.0	-0.0	-0.0	12.837302207946776	86.53662109375	-502.6820983886719	0.8871078491210938	-83.27831268310547	-467.8453063964844	-0.0	-0.0	-0.0	-0.0	-0.0	-0.0	68373.3984375	-8857.73828125	-5662.76025390625
0.2015	-0.0	-0.0	-0.0	13.292366027832031	85.4627914428711	-501.162353515625	2.0626485347747803	-82.43077087402344	-470.568603515625	-0.0	-0.0	-0.0	-0.0	-0.0	-0.0	68414.5234375	-8838.3623046875	-5713.474609375
0.202	-0.0	-0.0	-0.0	13.70786476135254	84.85650634765625	-500.438720703125	2.310879230499268	-82.7486572265625	-469.6954956054688	-0.0	-0.0	-0.0	-0.0	-0.0	-0.0	69194.0390625	-8784.033203125	-5415.2880859375
0.2025	-0.0	-0.0	-0.0	14.26503562927246	83.3110122680664	-497.6476745605469	3.21101713180542	-82.56343078613281	-476.5062255859375	-0.0	-0.0	-0.0	-0.0	-0.0	-0.0	69386.8515625	-9291.2568359375	-5246.84375
0.203	-0.0	-0.0	-0.0	14.30338191986084	82.69181823730469	-493.812744140625	3.649974584579468	-82.22323608398438	-478.9855041503906	-0.0	-0.0	-0.0	-0.0	-0.0	-0.0	69672.3671875	-9277.7314453125	-5265.962890625
0.20350000000000001	-0.0	-0.0	-0.0	15.462827682495115	80.48056030273438	-492.97265625	4.528486251831055	-82.31159210205078	-480.3825988769531	-0.0	-0.0	-0.0	-0.0	-0.0	-0.0	70250.1171875	-9176.1552734375	-5235.724609375
0.20400000000000001	-0.0	-0.0	-0.0	16.223892211914062	79.0752182006836	-489.9261779785156	4.8832688331604	-82.4166030883789	-481.5129699707031	-0.0	-0.0	-0.0	-0.0	-0.0	-0.0	70461.0	-9208.8271484375	-5116.88330078125
0.20450000000000002	-0.0	-0.0	-0.0	16.65394401550293	78.67781066894531	-490.5830383300781	5.149321556091309	-82.13509368896484	-484.2894287109375	-0.0	-0.0	-0.0	-0.0	-0.0	-0.0	70906.3515625	-9417.9892578125	-5084.2724609375
0.20500000000000002	-0.0	-0.0	-0.0	16.856767654418945	78.43074035644531	-493.4082946777344	5.508177757263184	-82.74934387207031	-486.4161071777344	-0.0	-0.0	-0.0	-0.0	-0.0	-0.0	71277.921875	-9447.85546875	-4946.7548828125
0.20550000000000002	-0.0	-0.0	-0.0	17.493139266967773	77.70989990234375	-496.2646179199219	5.762225151062012	-82.06271362304688	-490.1775817871094	-0.0	-0.0	-0.0	-0.0	-0.0	-0.0	71764.6796875	-9552.0625	-4969.310546875
0.20600000000000002	-0.0	-0.0	-0.0	18.90487289428711	77.19081115722656	-499.3810729980469	6.3676042556762695	-82.22749328613281	-490.5734558105469	-0.0	-0.0	-0.0	-0.0	-0.0	-0.0	72046.8359375	-9417.7041015625	-4917.46875
0.20650000000000002	-0.0	-0.0	-0.0	19.79322624206543	76.76426696777344	-498.7204284667969	6.560725212097168	-81.97409057617188	-492.71392822265625	-0.0	-0.0	-0.0	-0.0	-0.0	-0.0	72691.515625	-9290.0830078125	-4825.61474609375
0.20700000000000002	-0.0	-0.0	-0.0	20.08363151550293	76.57427978515625	-500.4857177734375	7.1817803382873535	-82.55056762695312	-497.4962768554688	-0.0	-0.0	-0.0	-0.0	-0.0	-0.0	72930.296875	-9426.4521484375	-5080.80078125
0.20750000000000002	-0.0	-0.0	-0.0	20.247072219848636	76.28820037841797	-503.9436645507813	7.189306259155273	-82.49989318847656	-499.6213073730469	-0.0	-0.0	-0.0	-0.0	-0.0	-0.0	73256.09375	-9478.7333984375	-4823.9130859375
0.20800000000000002	-0.0	-0.0	-0.0	20.492843627929688	76.12467193603516	-506.9000244140625	7.714147090911865	-82.37472534179688	-503.4475708007813	-0.0	-0.0	-0.0	-0.0	-0.0	-0.0	73969.7109375	-9393.0146484375	-4791.34765625
0.2085	-0.0	-0.0	-0.0	20.13656234741211	75.76441955566406	-509.9352416992188	7.366606712341309	-82.30502319335938	-505.2081909179688	-0.0	-0.0	-0.0	-0.0	-0.0	-0.0	74117.90625	-9528.1298828125	-4907.81787109375
0.209	-0.0	-0.0	-0.0	19.80826568603516	75.22605895996094	-511.39056396484375	8.157821655273438	-82.13206481933594	-507.44378662109375	-0.0	-0.0	-0.0	-0.0	-0.0	-0.0	75065.40625	-9472.10546875	-4910.81982421875
0.2095	-0.0	-0.0	-0.0	19.176807403564453	75.84652709960938	-513.2660522460938	7.898751258850098	-81.44303131103516	-510.7813415527344	-0.0	-0.0	-0.0	-0.0	-0.0	-0.0	75111.5703125	-9031.9111328125	-5027.12451171875
0.21	-0.0	-0.0	-0.0	18.380756378173828	75.93910217285156	-513.9171142578125	8.41037368774414	-81.76539611816406	-511.5341491699219	-0.0	-0.0	-0.0	-0.0	-0.0	-0.0	75393.9609375	-8949.755859375	-5145.5185546875
0.2105	-0.0	-0.0	-0.0	17.58116912841797	76.80699157714844	-517.8016357421875	7.881704330444336	-81.34089660644531	-513.9111328125	-0.0	-0.0	-0.0	-0.0	-0.0	-0.0	75435.6484375	-8915.7138671875	-5060.20849609375
0.211	-0.0	-0.0	-0.0	16.40819549560547	76.29562377929688	-519.16162109375	7.780076026916504	-81.16104125976562	-514.6495361328125	-0.0	-0.0	-0.0	-0.0	-0.0	-0.0	75374.9765625	-8813.4814453125	-5356.82177734375
0.2115	-0.0	-0.0	-0.0	14.03171730041504	76.8111801147461	-518.089599609375	6.571095943450928	-80.71632385253906	-517.3916015625	-0.0	-0.0	-0.0	-0.0	-0.0	-0.0	76000.15625	-8577.9658203125	-5472.92578125
0.212	-0.0	-0.0	-0.0	12.907024383544922	75.43596649169922	-515.6802978515625	6.37434720993042	-80.80157470703125	-517.1061401367188	-0.0	-0.0	-0.0	-0.0	-0.0	-0.0	76070.6484375	-8692.669921875	-5625.7109375
0.2125	-0.0	-0.0	-0.0	11.658799171447754	75.58258056640625	-516.0813598632812	5.3132643699646	-80.19920349121094	-519.1146240234375	-0.0	-0.0	-0.0	-0.0	-0.0	-0.0	75965.7109375	-8013.41796875	-5922.873046875
0.213	-0.0	-0.0	-0.0	10.179076194763184	75.29705047607422	-515.6427001953125	4.616028308868408	-80.01334381103516	-517.1417846679688	-0.0	-0.0	-0.0	-0.0	-0.0	-0.0	76220.46875	-7932.02734375	-6041.91748046875
0.2135	-0.0	-0.0	-0.0	9.188682556152344	75.04486083984375	-515.2428588867188	3.805597305297852	-79.83982849121094	-517.0582275390625	-0.0	-0.0	-0.0	-0.0	-0.0	-0.0	75808.1015625	-7740.25341796875	-6220.35546875
0.214	-0.0	-0.0	-0.0	8.21898365020752	74.4325942993164	-515.5507202148438	3.521914482116699	-79.48951721191406	-514.6495361328125	-0.0	-0.0	-0.0	-0.0	-0.0	-0.0	75655.1015625	-7178.7490234375	-6281.72412109375
0.2145	-0.0	-0.0	-0.0	8.552760124206543	74.42675018310547	-514.2526245117188	2.309385061264038	-79.21009063720703	-513.951171875	-0.0	-0.0	-0.0	-0.0	-0.0	-0.0	74926.0703125	-6953.20849609375	-6460.4296875
0.215	-0.0	-0.0	-0.0	7.147968769073486	73.98657989501953	-515.6647338867188	1.7798653841018677	-78.6006851196289	-513.624267578125	-0.0	-0.0	-0.0	-0.0	-0.0	-0.0	75077.453125	-6742.525390625	-6839.5390625
0.2155	-0.0	-0.0	-0.0	6.79088306427002	74.16193389892578	-518.4681396484375	1.2447152137756348	-78.2502670288086	-512.91455078125	-0.0	-0.0	-0.0	-0.0	-0.0	-0.0	75257.8671875	-6208.900390625	-6840.794921875
0.216	-0.0	-0.0	-0.0	7.404472351074219	73.5352554321289	-522.2788696289062	1.067252278327942	-77.28961181640625	-514.2681274414062	-0.0	-0.0	-0.0	-0.0	-0.0	-0.0	74693.875	-6262.1220703125	-6986.279296875
0.2165	-0.0	-0.0	-0.0	8.370192527770996	73.01078796386719	-523.7555541992188	1.153240203857422	-77.61897277832031	-513.60205078125	-0.0	-0.0	-0.0	-0.0	-0.0	-0.0	74833.515625	-5965.0986328125	-6959.396484375
0.217	-0.0	-0.0	-0.0	8.03661823272705	72.3764419555664	-524.1494140625	1.0567245483398438	-76.40861511230469	-513.2222290039062	-0.0	-0.0	-0.0	-0.0	-0.0	-0.0	74764.3828125	-5792.71240234375	-6874.529296875
0.2175	-0.0	-0.0	-0.0	7.862914085388184	72.1882095336914	-525.1884155273438	0.968251407146454	-76.30239868164062	-513.951171875	-0.0	-0.0	-0.0	-0.0	-0.0	-0.0	75085.4140625	-5510.17822265625	-6959.23388671875
0.218	-0.0	-0.0	-0.0	7.770980358123779	71.57654571533203	-527.975341796875	1.0596067905426023	-75.95909881591797	-513.572998046875	-0.0	-0.0	-0.0	-0.0	-0.0	-0.0	75321.1953125	-5335.7080078125	-7222.78662109375
0.2185	-0.0	-0.0	-0.0	7.932610511779785	71.83199310302734	-527.669677734375	0.7048461437225342	-76.30511474609375	-514.9986572265625	-0.0	-0.0	-0.0	-0.0	-0.0	-0.0	75095.5390625	-5246.580078125	-7113.44091796875
0.219	-0.0	-0.0	-0.0	6.967598915100098	71.75685119628906	-529.081787109375	0.5346050262451172	-75.0781021118164	-516.4044799804688	-0.0	-0.0	-0.0	-0.0	-0.0	-0.0	75419.4453125	-5249.2890625	-7287.16162109375
0.2195	-0.0	-0.0	-0.0	6.521304130554199	72.44962310791016	-529.0724487304688	0.7892768383026123	-74.63409423828125	-516.0730590820312	-0.0	-0.0	-0.0	-0.0	-0.0	-0.0	75135.7265625	-4599.8818359375	-7254.13427734375
0.22	-0.0	-0.0	-0.0	6.512367248535156	71.94357299804688	-531.199951171875	0.2661323547363281	-74.17906951904297	-516.7003173828125	-0.0	-0.0	-0.0	-0.0	-0.0	-0.0	75183.640625	-4792.81005859375	-7462.08056640625
0.2205	-0.0	-0.0	-0.0	5.964430809020996	73.25675964355469	-533.268310546875	0.0021587796509265	-73.65384674072266	-515.679931640625	-0.0	-0.0	-0.0	-0.0	-0.0	-0.0	75597.953125	-4299.896484375	-7463.658203125
0.221	-0.0	-0.0	-0.0	5.163952827453613	73.97003936767578	-533.3017578125	0.1711268723011016	-72.86329650878906	-515.3560180664062	-0.0	-0.0	-0.0	-0.0	-0.0	-0.0	75037.03125	-4103.4580078125	-7523.38720703125
0.2215	-0.0	-0.0	-0.0	4.28013277053833	74.156494140625	-532.5875244140625	-0.6209754943847656	-72.33345031738281	-514.30029296875	-0.0	-0.0	-0.0	-0.0	-0.0	-0.0	75077.390625	-4092.10546875	-7758.42822265625
0.222	-0.0	-0.0	-0.0	3.116579055786133	74.156494140625	-533.6625366210938	-1.234042048454285	-71.80552673339844	-513.2606811523438	-0.0	-0.0	-0.0	-0.0	-0.0	-0.0	75039.953125	-3722.95361328125	-7820.09765625
0.2225	-0.0	-0.0	-0.0	2.4181244373321533	74.51301574707031	-532.2720947265625	-0.9758186340332032	-70.84363555908203	-511.8181762695313	-0.0	-0.0	-0.0	-0.0	-0.0	-0.0	74397.3359375	-4045.298583984375	-7790.66650390625
0.223	-0.0	-0.0	-0.0	1.7932498455047607	74.86231231689453	-531.571533203125	-1.321380615234375	-70.73827362060547	-511.43408203125	-0.0	-0.0	-0.0	-0.0	-0.0	-0.0	74511.9765625	-3719.48828125	-7822.41162109375
0.2235	-0.0	-0.0	-0.0	1.0792627334594729	74.77691650390625	-530.4901733398438	-1.0717132091522217	-70.30048370361328	-508.39300537109375	-0.0	-0.0	-0.0	-0.0	-0.0	-0.0	74357.7734375	-3245.9462890625	-7997.64453125
0.224	-0.0	-0.0	-0.0	0.8046002984046936	75.13011932373047	-531.1758422851562	-1.5028196573257446	-69.6097183227539	-507.9880065917969	-0.0	-0.0	-0.0	-0.0	-0.0	-0.0	74125.1796875	-2868.4345703125	-8173.427734375
0.2245	-0.0	-0.0	-0.0	0.6212226152420044	74.51139068603516	-531.1826171875	-2.043697595596313	-69.77581024169922	-506.2830200195313	-0.0	-0.0	-0.0	-0.0	-0.0	-0.0	74063.28125	-2839.243896484375	-7999.92333984375
0.225	-0.0	-0.0	-0.0	0.6276028752326965	74.43014526367188	-528.7041625976562	-1.6903477907180786	-69.67455291748047	-504.8795776367188	-0.0	-0.0	-0.0	-0.0	-0.0	-0.0	73859.875	-2585.096923828125	-8087.5185546875
0.2255	-0.0	-0.0	-0.0	0.2765419483184814	74.15946197509766	-528.3453979492188	-1.6947160959243774	-69.24114227294922	-503.5068359375	-0.0	-0.0	-0.0	-0.0	-0.0	-0.0	73568.5859375	-2412.073486328125	-8089.97802734375
